<?xml version="1.0" encoding="UTF-8"?>
<svg id="a" data-name="Camada 1" xmlns="http://www.w3.org/2000/svg" xmlns:xlink="http://www.w3.org/1999/xlink" viewBox="0 0 70 70">
  <defs>
    <clipPath id="b">
      <rect x="3.53" y="8.11" width="62.95" height="53.78" fill="none"/>
    </clipPath>
  </defs>
  <g clip-path="url(#b)">
    <g>
      <path d="M56.8,46H3.53V8.11h53.27v37.89Z" fill="#fff"/>
      <path d="M7.86,23.67c-.14,0-.27.05-.37.15-.1.1-.15.23-.15.37s.05.27.15.37c.1.1.23.15.37.15h17.99c.14,0,.27-.06.37-.15.1-.1.15-.23.15-.37s-.05-.27-.15-.37c-.1-.1-.23-.15-.37-.15H7.86Z" fill="#47a138"/>
      <path d="M7.86,26.79c-.14,0-.27.05-.37.15-.1.1-.15.23-.15.37,0,.14.05.27.15.37.1.1.23.15.37.15h18.01c.14,0,.27-.05.37-.15.1-.1.15-.23.15-.37s-.05-.27-.15-.37c-.1-.1-.23-.15-.37-.15H7.86Z" fill="#47a138"/>
      <path d="M7.86,29.87c-.14,0-.27.05-.37.15-.1.1-.15.23-.15.37,0,.14.05.27.15.37.1.1.23.15.37.15h4.05c.14,0,.27-.05.37-.15.1-.1.15-.23.15-.37s-.05-.27-.15-.37c-.1-.1-.23-.15-.37-.15h-4.05Z" fill="#47a138"/>
      <path d="M56.8,46H3.53V8.11h53.27v37.89ZM4.4,45.12h51.52V8.99H4.4v36.14Z" fill="#e5e5e5"/>
      <path d="M40.04,37.68c-.25,0-.49.1-.66.27-.18.17-.27.41-.27.66,0,.25.1.49.27.66.17.18.41.27.66.28h8.92c.12,0,.24-.02.36-.07.11-.05.22-.12.3-.2s.16-.19.2-.3c.05-.11.07-.24.07-.36s-.02-.24-.07-.36c-.05-.11-.12-.22-.2-.3-.09-.09-.19-.16-.3-.2-.11-.05-.23-.07-.36-.07h-8.91Z" fill="#e4e4e4"/>
      <path d="M40.04,26.36c-.25,0-.49.1-.66.27-.18.17-.27.41-.27.66,0,.25.1.49.27.66.17.18.41.27.66.28h8.92c.12,0,.24-.02.36-.07.11-.05.22-.12.3-.2.09-.09.16-.19.2-.3.05-.11.07-.24.07-.36s-.02-.24-.07-.36c-.05-.11-.12-.22-.2-.3-.09-.09-.19-.16-.3-.2-.11-.05-.23-.07-.36-.07h-8.91Z" fill="#e4e4e4"/>
      <path d="M7.86,38.11c-.07,0-.14.01-.2.04s-.12.06-.17.11c-.05.05-.09.11-.11.17-.03.06-.04.13-.04.2,0,.07.01.14.04.2.03.06.06.12.11.17.05.05.11.09.17.11.06.03.13.04.2.04h18.01c.14,0,.27-.05.37-.15.1-.1.15-.23.15-.37s-.05-.27-.15-.37c-.1-.1-.23-.15-.37-.15H7.86Z" fill="#e4e4e4"/>
      <path d="M7.86,41.18c-.07,0-.14.01-.2.04-.06.03-.12.06-.17.11-.05.05-.09.11-.11.17-.03.06-.04.13-.04.2,0,.07.01.14.04.2.03.06.06.12.11.17.05.05.11.09.17.11.06.03.13.04.2.04h4.05c.14,0,.27-.05.37-.15.1-.1.15-.23.15-.37s-.05-.27-.15-.37c-.1-.1-.23-.15-.37-.15h-4.05Z" fill="#e4e4e4"/>
      <path d="M7.86,34.99c-.14,0-.27.05-.37.15-.1.1-.15.23-.15.37s.05.27.15.37c.1.1.23.15.37.15h17.99c.14,0,.27-.06.37-.15s.15-.23.15-.37-.05-.27-.15-.37c-.1-.1-.23-.15-.37-.15H7.86Z" fill="#e4e4e4"/>
      <path d="M7.86,12.36c-.14,0-.27.05-.37.15-.1.1-.15.23-.15.37s.05.27.15.37c.1.1.23.15.37.15h17.99c.14,0,.27-.06.37-.15.1-.1.15-.23.15-.37s-.05-.27-.15-.37c-.1-.1-.23-.15-.37-.15H7.86Z" fill="#e4e4e4"/>
      <path d="M7.86,15.48c-.07,0-.14.01-.2.04s-.12.06-.17.11c-.05.05-.09.11-.11.17-.03.06-.04.13-.04.2,0,.07.01.14.04.2.03.06.06.12.11.17.05.05.11.09.17.11.06.03.13.04.2.04h18.01c.07,0,.14-.01.2-.04.06-.03.12-.06.17-.11.05-.05.09-.11.11-.17.03-.06.04-.13.04-.2s-.01-.14-.04-.2c-.03-.06-.06-.12-.11-.17-.05-.05-.11-.09-.17-.11-.06-.03-.13-.04-.2-.04H7.86Z" fill="#e4e4e4"/>
      <path d="M7.86,18.55c-.14,0-.27.05-.37.15-.1.1-.15.23-.15.37,0,.14.05.27.15.37.1.1.23.15.37.15h4.05c.14,0,.27-.05.37-.15.1-.1.15-.23.15-.37s-.05-.27-.15-.37c-.1-.1-.23-.15-.37-.15h-4.05Z" fill="#e4e4e4"/>
      <path d="M40.04,15.04c-.25,0-.49.1-.66.27-.18.18-.27.41-.27.66,0,.25.1.49.27.66.17.18.41.27.66.28h8.92c.12,0,.24-.02.36-.07.11-.05.22-.12.3-.2.09-.09.16-.19.2-.3.05-.11.07-.24.07-.36s-.02-.24-.07-.36c-.05-.11-.12-.22-.2-.3-.09-.09-.19-.16-.3-.2-.11-.05-.23-.07-.36-.07h-8.91Z" fill="#e4e4e4"/>
      <path d="M41.92,17.65c.92,0,1.67-.75,1.67-1.68s-.75-1.68-1.67-1.68-1.67.75-1.67,1.68.75,1.68,1.67,1.68Z" fill="#cacaca"/>
      <path d="M45.78,26.95c.21,0,.41.08.57.23.16.14.25.34.28.55h0s0,.02,0,.02l1.25,2.62-1.16.23-.87-1.88-.02-.04h-.05c-.13,0-.25-.02-.37-.06-.12-.05-.22-.12-.3-.21-.08-.09-.15-.2-.18-.32-.04-.12-.05-.25-.03-.37h0c.03-.21.13-.4.29-.54.16-.14.36-.21.58-.21Z" fill="none" stroke="#000"/>
      <path d="M53.85,34.99l-3.63-1.8-2.56-4.35-1.79.87,2.32,5.03,5.87,3.39-.21-3.14Z" fill="#3f3d56"/>
      <path d="M45.59,57.49v3.15h-1.01l-.52-3.15h1.53Z" fill="none" stroke="#000"/>
      <path d="M45.95,61.82h-3.68v-.05c0-.38.15-.74.42-1.01.27-.27.63-.42,1.01-.42h2.25v1.48Z" fill="#2f2e41"/>
      <path d="M56.94,58.62l-.7.72-2.62-1.83,1.07-1.1,2.25,2.2Z" fill="none" stroke="#000"/>
      <path d="M58.04,59.18l-2.57,2.64-.03-.03c-.27-.27-.43-.63-.43-1.01,0-.38.14-.75.41-1.02l1.57-1.61,1.06,1.03Z" fill="#2f2e41"/>
      <path d="M47.07,41.11h-.79c-2.05,2.24-3.62,4.89-4.6,7.77l-.94,2.76,3.36,7.04,2.1.04-2.4-7.47,2.41-3.2.12,6.44,7.77,4.08,1.55-2.3-6.32-3.46,1.08-5.48s2.17-1.81.9-4.63l-4.25-1.57Z" fill="#2f2e41"/>
      <path d="M57.45,33.95l-3.28-1.44-3.61,1.6s-1.02.58-.37,2.07l-3.91,4.93s0,0,4.93,1.57l4.44-3.91c.67-.59,1.19-1.35,1.51-2.19.31-.84.42-1.75.3-2.64Z" fill="#3f3d56"/>
      <path d="M56.9,32.47c1.26,0,2.28-1.02,2.28-2.29s-1.02-2.29-2.28-2.29-2.28,1.02-2.28,2.29,1.02,2.29,2.28,2.29Z" fill="#47a138"/>
      <path d="M59.86,27.14c-.52-.43-1.34-.52-1.88-.12-.94-.5-2.22-.24-2.9.59-.24.3-.42.7-.3,1.06.12.36.64.58.91.31v.11c.24.24.41.55.48.89.07.34.05.69-.07,1.01-.12.32-.33.61-.6.82-.27.21-.6.34-.95.37.75.3,1.5.61,2.25.91.32.13.64.26.98.26.34,0,.7-.17.83-.48.09.29.19.58.28.87.56-.89,1.02-1.84,1.37-2.83.23-.64.41-1.3.39-1.98-.02-.68-.28-1.37-.81-1.8Z" fill="#2f2e41"/>
      <path d="M41.92,40.28c.92,0,1.67-.75,1.67-1.68s-.75-1.68-1.67-1.68-1.67.75-1.67,1.68.75,1.68,1.67,1.68Z" fill="#cacaca"/>
      <path d="M47.12,28.97c.92,0,1.67-.75,1.67-1.68s-.75-1.68-1.67-1.68-1.67.75-1.67,1.68.75,1.68,1.67,1.68Z" fill="#47a138"/>
      <path d="M48.1,26.02c.21,0,.41.08.57.23.16.14.25.34.28.55h0s0,.02,0,.02l1.25,2.62-1.16.23-.87-1.88-.02-.04h-.05c-.13,0-.25-.02-.37-.06-.12-.05-.22-.12-.3-.21-.08-.09-.15-.2-.18-.32-.04-.12-.05-.25-.03-.37h0c.03-.21.13-.4.29-.54s.36-.21.58-.21Z" fill="none" stroke="#000"/>
      <path d="M56.18,34.06l-3.63-1.8-2.56-4.35-1.79.87,2.32,5.03,5.87,3.39-.21-3.14Z" fill="#3f3d56"/>
      <path d="M64.69,61.89H29.25s-.05,0-.07-.03c-.02-.02-.03-.04-.03-.07s0-.05.03-.07c.02-.02.04-.03.07-.03h35.44s.05,0,.07.03c.02.02.03.04.03.07s0,.05-.03.07c-.02.02-.04.03-.07.03Z" fill="#cacaca"/>
    </g>
  </g>
</svg>