<?xml version="1.0" encoding="UTF-8"?>
<svg id="a" data-name="Camada 1" xmlns="http://www.w3.org/2000/svg" viewBox="0 0 70 70">
  <path d="M9.09,48.65c.07.02.18.04.3.07.27.06.66.16,1.12.29l.2.82.18-.02.05-.68c.72.22,1.44.49,2.14.78l.41,1.66.18-.02.09-1.33c1.01.49,2.01,1.11,2.81,1.86,1.35,1.28,2.36,2.66,2.91,3.85.28.6.43,1.14.46,1.6.03.46-.07.83-.31,1.08-.23.25-.58.38-1.03.39-.45,0-1-.11-1.6-.35-1.17-.46-2.54-1.34-3.85-2.56l-.13-.12c-.23-.22-.44-.44-.64-.68l1.53-.22v-.18s-2.13-.38-2.13-.38c-.92-1.3-1.59-2.8-2.04-3.98-.23-.59-.4-1.1-.51-1.47-.06-.18-.1-.33-.13-.42,0,0,0,0,0-.01Z" fill="none" stroke="#47a138"/>
  <path d="M15.16,44.95c.06.05.13.12.23.21.2.2.49.48.82.83l-.24.79.16.08.38-.54c.51.56.99,1.15,1.44,1.77l-.49,1.61.16.08.75-1.07c.62.94,1.17,1.97,1.47,3.03.51,1.78.68,3.46.55,4.75-.07.64-.21,1.19-.42,1.59-.21.4-.49.66-.81.75-.33.09-.7.02-1.09-.21-.39-.23-.8-.61-1.2-1.12-.8-1.02-1.55-2.54-2.06-4.32h0c-.08-.3-.15-.6-.21-.91l1.43.6.09-.15-1.65-1.43c-.12-1.57.06-3.18.27-4.41.11-.62.22-1.13.31-1.5.04-.18.08-.32.11-.42,0,0,0,0,0,0Z" fill="none" stroke="#47a138"/>
  <path d="M42.67,22.24h-.27v-7.28c0-.55-.11-1.1-.32-1.61-.21-.51-.52-.98-.91-1.37-.39-.39-.86-.7-1.37-.91-.51-.21-1.06-.32-1.61-.32h-15.42c-1.12,0-2.19.44-2.98,1.23-.79.79-1.23,1.86-1.23,2.98v39.94c0,.55.11,1.1.32,1.61.21.51.52.98.91,1.37.39.39.86.7,1.37.91.51.21,1.06.32,1.61.32h15.42c1.12,0,2.19-.44,2.98-1.23.79-.79,1.23-1.86,1.23-2.98v-27.48h.27v-5.18Z" fill="#e6e6e6"/>
  <path d="M38.38,11.89h-2.02c.09.23.13.47.1.72-.03.24-.11.48-.25.68s-.32.37-.54.48c-.22.12-.46.18-.7.18h-8.85c-.25,0-.49-.06-.7-.18-.22-.12-.4-.28-.54-.48-.14-.2-.22-.44-.25-.68-.03-.24.01-.49.1-.72h-1.88c-.84,0-1.64.33-2.23.92-.59.59-.92,1.39-.92,2.22v39.81c0,.83.33,1.63.92,2.22.59.59,1.39.92,2.23.92h15.52c.84,0,1.64-.33,2.23-.92.59-.59.92-1.39.92-2.22V15.03c0-.83-.33-1.63-.92-2.22-.59-.59-1.39-.92-2.23-.92Z" fill="#fff"/>
  <path d="M28.56,27.68c0-.29.07-.57.2-.81.13-.25.33-.45.56-.6-.23-.14-.49-.22-.76-.22s-.53.08-.76.22c-.23.14-.42.35-.56.6-.13.25-.2.53-.2.81s.07.57.2.81c.13.25.33.45.56.6.23.14.49.22.76.22s.53-.08.76-.22c-.23-.14-.42-.35-.56-.6-.13-.25-.2-.53-.2-.81Z" fill="#ccc"/>
  <path d="M30.62,27.68c0-.29.08-.57.22-.81.14-.25.35-.45.6-.6-.25-.14-.53-.22-.81-.22s-.57.08-.81.22c-.25.14-.45.35-.6.6-.14.25-.22.53-.22.81s.08.57.22.81c.14.25.35.45.6.6.25.14.53.22.81.22s.57-.08.81-.22c-.25-.14-.45-.35-.6-.6-.14-.25-.22-.53-.22-.81Z" fill="#ccc"/>
  <path d="M32.57,29.31c.9,0,1.63-.73,1.63-1.63s-.73-1.63-1.63-1.63-1.63.73-1.63,1.63.73,1.63,1.63,1.63Z" fill="#47a138"/>
  <path d="M35.17,32.73h-9.27c-.09,0-.17-.04-.24-.1-.06-.06-.1-.15-.1-.24v-9.27c0-.09.04-.17.1-.24.06-.06.15-.1.24-.1h9.27c.09,0,.17.04.24.1.06.06.1.15.1.24v9.27c0,.09-.04.17-.1.24-.06.06-.15.1-.24.1ZM25.9,22.93c-.05,0-.1.02-.14.06-.04.04-.06.09-.06.14v9.27c0,.05.02.1.06.14.04.04.09.06.14.06h9.27c.05,0,.1-.02.14-.06.04-.04.06-.09.06-.14v-9.27c0-.05-.02-.1-.06-.14-.04-.04-.09-.06-.14-.06h-9.27Z" fill="#ccc"/>
  <path d="M39.38,39.3h-17.26v.16h17.26v-.16Z" fill="#004d61"/>
  <path d="M39.38,44.35h-17.26v.16h17.26v-.16Z" fill="#004d61"/>
  <path d="M22.64,38.28c.32,0,.58-.26.58-.58s-.26-.58-.58-.58-.58.26-.58.58.26.58.58.58Z" fill="#47a138"/>
  <path d="M22.64,43.22c.32,0,.58-.26.58-.58s-.26-.58-.58-.58-.58.26-.58.58.26.58.58.58Z" fill="#47a138"/>
  <path d="M38.97,50.49h-5.78c-.1,0-.2-.04-.27-.11-.07-.07-.11-.17-.11-.27v-2.03c0-.1.04-.2.11-.27.07-.07.17-.11.27-.11h5.78c.1,0,.2.04.27.11.07.07.11.17.11.27v2.03c0,.1-.04.2-.11.27-.07.07-.17.11-.27.11Z" fill="#47a138"/>
  <path d="M24.53,38.28c.32,0,.58-.26.58-.58s-.26-.58-.58-.58-.58.26-.58.58.26.58.58.58Z" fill="#47a138"/>
  <path d="M24.53,43.22c.32,0,.58-.26.58-.58s-.26-.58-.58-.58-.58.26-.58.58.26.58.58.58Z" fill="#47a138"/>
  <path d="M26.41,38.28c.32,0,.58-.26.58-.58s-.26-.58-.58-.58-.58.26-.58.58.26.58.58.58Z" fill="#47a138"/>
  <path d="M26.41,43.22c.32,0,.58-.26.58-.58s-.26-.58-.58-.58-.58.26-.58.58.26.58.58.58Z" fill="#47a138"/>
  <path d="M65.04,59.25H4.96c-.13,0-.23-.05-.23-.1s.1-.1.23-.1h60.08c.13,0,.23.05.23.1s-.1.1-.23.1Z" fill="#3f3d56"/>
  <path d="M49.87,29.54l-6.64,1.75h-.05s-.01.06-.01.06c-.01.04-.03.08-.05.12-.09.19-.23.35-.41.46-.18.11-.39.16-.6.15-.21,0-.41-.08-.58-.2-.17-.12-.3-.29-.37-.49-.07-.2-.09-.41-.04-.62.05-.2.16-.39.31-.53.15-.14.35-.24.55-.27.21-.03.42,0,.61.08h0c.05.02.1.05.15.08l.04.03.05-.02,5.08-2.16.05-.02v-.05s.18-1.26.18-1.26h1.86s-.11,2.89-.11,2.89Z" fill="none" stroke="#000"/>
  <path d="M50.72,52.62v5.27h-1.18l-.62-5.27h1.81Z" fill="none" stroke="#000"/>
  <path d="M48.49,57.44h2.68v1.82h-4.36c0-.48.18-.94.49-1.28.32-.34.74-.53,1.19-.53Z" fill="#2f2e41"/>
  <path d="M56.16,57.4l-1.2.12-1.13-5.07,1.83-.18.5,5.13Z" fill="none" stroke="#000"/>
  <path d="M53.89,57.34l2.68-.26.17,1.69-4.37.43c-.02-.22,0-.45.06-.66.06-.21.17-.41.31-.58.14-.17.32-.31.51-.42.2-.1.41-.17.63-.19Z" fill="#2f2e41"/>
  <path d="M51.26,20.74c1.56,0,2.82-1.26,2.82-2.82s-1.26-2.82-2.82-2.82-2.82,1.26-2.82,2.82,1.26,2.82,2.82,2.82Z" fill="#ff5031"/>
  <path d="M49.16,56.89c-.12,0-.23-.04-.33-.12-.09-.08-.15-.19-.17-.3-.72-4.04-3.07-17.23-3.12-17.6,0,0,0-.02,0-.03v-.98s.01-.07.03-.1l.31-.44s.03-.04.06-.05c.02-.01.05-.02.07-.02,1.77-.08,7.56-.33,7.84.02.28.36.18,1.43.16,1.65v.02s2.6,16.84,2.6,16.84c.02.13-.01.27-.09.38-.08.11-.2.18-.33.21l-1.63.27c-.12.02-.25,0-.35-.07-.1-.07-.18-.17-.22-.28-.5-1.63-2.19-7.09-2.77-9.21,0-.01-.01-.02-.02-.03-.01,0-.03-.01-.04,0-.01,0-.03,0-.04.02,0,.01-.01.02-.01.04.03,2.02.1,7.16.12,8.94v.19c0,.13-.04.25-.13.35-.09.1-.2.16-.33.17l-1.57.14s-.03,0-.05,0Z" fill="#2f2e41"/>
  <path d="M49.48,21.91c-.5.29-.79.82-.96,1.37-.32,1-.51,2.04-.57,3.09l-.18,3.14-2.23,8.33c1.93,1.61,3.05,1.24,5.65-.07,2.6-1.32,2.9.44,2.9.44l.52-7.09.74-7.75c-.17-.2-.36-.38-.56-.53-.69-.53-1.49-.89-2.34-1.07-.85-.18-1.73-.16-2.58.04l-.39.09Z" fill="#47a138"/>
  <path d="M56.16,30.74l-6.67,2.24-.05.02v.05c-.06.22-.18.42-.34.58-.17.15-.37.25-.59.28-.22.03-.45,0-.65-.11-.2-.1-.36-.27-.47-.47-.11-.2-.15-.43-.13-.66.02-.23.12-.44.26-.61.15-.17.34-.29.56-.35.22-.06.44-.04.65.03h0c.05.02.11.05.16.08l.04.02.04-.02,5.04-2.56.05-.02v-.05s.08-1.31.08-1.31l1.9-.13.11,3Z" fill="none" stroke="#000"/>
  <path d="M55.21,23.43c1.2.44,1.41,5.16,1.41,5.16-1.41-.8-3.11.51-3.11.51,0,0-.35-1.23-.78-2.83-.13-.45-.14-.92-.04-1.38.1-.46.31-.88.61-1.23,0,0,.71-.65,1.91-.22Z" fill="#47a138"/>
  <path d="M51.11,14.17c.77-.2,1.36.13,1.76.52.2.2.35.4.46.56.05.08.09.15.12.2.01.02.02.04.03.05,0,0,0,.01,0,.01,0,0,0,0,0,0,0,0,0,0,0,0h0s.01.03.01.03h.03c.25.14.42.4.52.74.1.34.13.74.12,1.11-.01.38-.08.73-.15.96-.04.12-.08.2-.11.24,0,0-.01.01-.02.02-.22-.17-.47-.09-.65,0-.07.04-.12.08-.17.11l-.26-2.35v-.09s-.1.01-.1.01h0s0,0,0,0c0,0,0,0,0,0,0,0,0,0-.01,0-.01,0-.03,0-.06,0-.05,0-.12.01-.21.02-.18.02-.44.03-.73.04-.58.02-1.3,0-1.85-.14-.3-.07-.55-.05-.74.05-.2.09-.34.24-.43.4-.04.06-.07.13-.1.19-.02-.36-.02-.73,0-1.1.03-.28.25-.57.68-.85.43-.28,1.06-.54,1.87-.75Z" fill="none" stroke="#000"/>
  <path d="M50.36,18.16s-.04-.04-.06-.07c-.01-.02-.02-.05-.03-.08,0-.03,0-.06,0-.09,0-.02,0-.04.01-.06,0-.02.01-.04.02-.05.03-.03.06-.03.1,0v-.52s.03,0,.03,0v.61s-.03-.03-.03-.03c-.03-.03-.06-.05-.09-.02,0,0-.01.02-.02.03,0,.01,0,.03,0,.04,0,.02,0,.05,0,.07,0,.02.01.04.02.06.03.06.08.08.13.09v.05s-.06-.02-.09-.04Z"/>
  <path d="M49.64,17.46l.41.06v.08s-.43-.06-.43-.06v-.08Z"/>
  <path d="M51.75,17.46l-.41.06v.08s.43-.06.43-.06v-.08Z"/>
</svg>