<?xml version="1.0" encoding="UTF-8"?>
<svg id="a" data-name="Camada 1" xmlns="http://www.w3.org/2000/svg" viewBox="0 0 70 70">
  <path d="M66.18,53.63H15.79c-.45,0-.88-.18-1.19-.49-.32-.32-.49-.75-.49-1.19,18.27-2.12,36.19-2.12,53.77,0,0,.45-.18.88-.49,1.19s-.75.49-1.19.49Z" fill="#2f2e41"/>
  <path d="M67.87,52.04l-53.77-.1,6.23-10.49.03-.05v-23.11c0-.28.06-.56.16-.82.11-.26.26-.49.46-.69.2-.2.43-.36.69-.46.26-.11.54-.16.82-.16h36.68c.28,0,.56.06.82.16.26.11.49.26.69.46.2.2.36.43.46.69.11.26.16.54.16.82v23.27l6.56,10.48Z" fill="#3f3d56"/>
  <path d="M22.45,17.65c-.18,0-.36.07-.49.2-.13.13-.2.31-.2.49v21.07c0,.18.07.36.2.49.13.13.31.2.49.2h37.07c.18,0,.36-.07.49-.2.13-.13.2-.31.2-.49v-21.07c0-.18-.07-.36-.2-.49-.13-.13-.31-.2-.49-.2H22.45Z" fill="#fff"/>
  <path d="M22.6,42.9c-.06,0-.11.02-.16.05-.05.03-.09.07-.11.13l-1.92,4.17s-.03.1-.03.15c0,.05.02.1.05.14.03.04.06.08.11.1.04.02.09.04.14.04h40.38c.05,0,.1-.01.15-.04.04-.02.08-.06.11-.1s.04-.09.04-.14c0-.05,0-.1-.03-.15l-2.09-4.17s-.06-.09-.11-.12c-.05-.03-.1-.04-.16-.04H22.6Z" fill="#2f2e41"/>
  <path d="M40.83,17.3c.25,0,.45-.2.45-.45s-.2-.45-.45-.45-.45.2-.45.45.2.45.45.45Z" fill="#fff"/>
  <path d="M36.86,48.46c-.07,0-.13.02-.18.06-.05.04-.09.1-.11.16l-.48,1.79s-.01.09,0,.14c0,.05.03.09.06.12.03.04.06.07.1.09.04.02.09.03.13.03h9.16s.09-.01.14-.03c.04-.02.08-.05.11-.09.03-.04.05-.08.05-.13,0-.05,0-.09-.01-.14l-.62-1.79c-.02-.06-.06-.11-.11-.15-.05-.04-.11-.06-.17-.06h-8.06Z" fill="#2f2e41"/>
  <path d="M61.31,41.06v.4H20.33l.03-.05v-.35h40.95Z" fill="#2f2e41"/>
  <path d="M60.16,24.66c3.84,0,6.96-3.11,6.96-6.96s-3.11-6.96-6.96-6.96-6.96,3.11-6.96,6.96,3.11,6.96,6.96,6.96Z" fill="#47a138"/>
  <path d="M63.04,20.73h-5.76c-.11,0-.21-.04-.28-.12-.07-.07-.12-.18-.12-.28v-3.48c0-.11.04-.21.12-.28.07-.07.18-.12.28-.12h5.76c.11,0,.21.04.28.12.07.07.12.18.12.28v3.48c0,.11-.04.21-.12.28-.07.07-.18.12-.28.12ZM57.28,16.86v3.48h5.76v-3.48h-5.76Z" fill="#fff"/>
  <path d="M61.95,16.86h-3.58v-1.59c0-1.15.75-1.99,1.79-1.99s1.79.84,1.79,1.99v1.59ZM58.77,16.46h2.78v-1.19c0-.94-.57-1.59-1.39-1.59s-1.39.65-1.39,1.59v1.19Z" fill="#fff"/>
  <path d="M60.16,18.89c.22,0,.4-.18.4-.4s-.18-.4-.4-.4-.4.18-.4.4.18.4.4.4Z" fill="#fff"/>
  <path d="M55.31,32.97h-28.65c-.14,0-.28-.06-.37-.16-.1-.1-.16-.23-.16-.37v-7.11c0-.14.06-.28.16-.37.1-.1.23-.16.37-.16h28.65c.14,0,.28.06.37.16.1.1.16.23.16.37v7.11c0,.14-.06.28-.16.37-.1.1-.23.16-.37.16ZM26.66,25.01c-.08,0-.17.03-.23.09-.06.06-.09.14-.09.22v7.11c0,.08.03.17.09.22.06.06.14.09.23.09h28.65c.08,0,.17-.03.22-.09.06-.06.09-.14.09-.22v-7.11c0-.08-.03-.17-.09-.22-.06-.06-.14-.09-.22-.09h-28.65Z" fill="#e6e6e6"/>
  <path d="M31.11,30.77c1.19,0,2.16-.97,2.16-2.16s-.97-2.16-2.16-2.16-2.16.97-2.16,2.16.97,2.16,2.16,2.16Z" fill="#e6e6e6"/>
  <path d="M36.1,27.17s-.09,0-.14.03c-.04.02-.08.04-.12.08-.03.03-.06.07-.08.12-.02.04-.03.09-.03.14s0,.09.03.14c.02.04.04.08.08.12.03.03.07.06.12.08.04.02.09.03.14.03h16.98c.1,0,.19-.04.25-.11.07-.07.11-.16.11-.25s-.04-.19-.11-.25c-.07-.07-.16-.11-.25-.11h-16.98Z" fill="#e6e6e6"/>
  <path d="M36.1,29.33c-.1,0-.19.04-.25.11-.07.07-.11.16-.11.25s.04.19.11.25c.07.07.16.11.25.11h7.31c.1,0,.19-.04.25-.11.07-.07.11-.16.11-.25s-.04-.19-.11-.25c-.07-.07-.16-.11-.25-.11h-7.31Z" fill="#e6e6e6"/>
  <path d="M21.08,26.49c.14-.02.29,0,.42.05.14.05.25.14.35.25.13.16.2.37.19.58-.01.21-.11.41-.26.55l-1.57,1.48-5.15,2.74-.06-2.12c1.71-.29,3.34-.79,4.84-1.6l.03-.02v-.03s.57-1.37.57-1.37c.05-.13.14-.25.26-.34.11-.09.25-.15.39-.17Z" fill="none" stroke="#000"/>
  <path d="M7.32,45.73c-.04-.14-.05-.29-.02-.44.02-.15.08-.28.16-.41l1.16-1.79c.28-.42.7-.73,1.18-.86.49-.13,1.01-.07,1.45.16-.49.83-.42,1.56.17,2.2-.92.45-1.76,1.02-2.51,1.71-.14.09-.29.15-.46.17-.16.02-.33,0-.49-.06-.16-.06-.3-.15-.41-.27-.11-.12-.19-.27-.24-.43Z" fill="#2f2e41"/>
  <path d="M20.5,43.4c-.18.29-.42.54-.72.71-.3.17-.63.26-.98.26l-7.73.06-.34-1.94,3.42-1.01-2.88-2.21,3.15-3.69,5.72,5.33c.33.31.55.73.62,1.18.06.45-.03.91-.26,1.31Z" fill="#8b8b8b"/>
  <path d="M9.87,56.69h-1.81c-1.63-11.14-3.28-22.31,1.61-26.48l5.77.94-.74,4.89-3.22,3.69-1.61,16.96Z" fill="#8b8b8b"/>
  <path d="M11.46,59.22c-.14.04-.29.05-.44.02-.15-.02-.28-.08-.41-.16l-1.97-.26c-.42-.28-.73-.7-.86-1.18-.13-.49-.07-1.01.16-1.45.83.49,1.56.42,2.2-.17.45.91,1.19.85,1.89,1.61.09.14.15.29.17.46.02.16,0,.33-.06.49-.06.16-.15.3-.27.41s-.27.19-.43.24Z" fill="#2f2e41"/>
  <path d="M15.08,33.17c-2.44,1.66-4.16.06-5.48-2.42.18-1.52-.11-3.33-.66-5.3-.24-.87-.15-1.8.26-2.6.41-.81,1.1-1.43,1.95-1.75l2.88,1.21c2.45,2,2.93,4.16,2.01,6.44l-.96,4.43Z" fill="#3f3d56"/>
  <path d="M7.95,24.4l-2.62,1.38-.15.08.14.08,4.73,2.8.65,1.6c.04.1.06.2.06.31,0,.11-.03.21-.07.3-.04.1-.11.18-.18.25-.08.07-.17.12-.27.16-.11.04-.23.05-.35.04-.12-.02-.23-.06-.33-.12-.1-.07-.18-.16-.24-.26-.06-.1-.09-.22-.1-.34l-.07-1.14v-.06s-.06-.02-.06-.02l-6.05-2c-.19-.06-.36-.17-.51-.31-.14-.14-.25-.31-.32-.5-.1-.28-.1-.58-.01-.85.09-.28.27-.52.51-.68l4.75-3.26.5,2.54Z" fill="none" stroke="#000"/>
  <path d="M10.74,24.72c-1.12-.49-2.14.04-3.42.47l-.2-3.55c1.27-.68,2.49-.86,3.62-.34v3.42Z" fill="#3f3d56"/>
  <path d="M11.85,14.16c.91,0,1.77.36,2.41,1,.64.64,1,1.5,1,2.4v2.6c0,.1-.04.2-.11.27-.07.07-.17.11-.27.11h-6.07c-.1,0-.2-.04-.27-.11-.06-.06-.1-.14-.11-.23v-.04s0-2.6,0-2.6c0-.9.36-1.76,1-2.4.64-.64,1.51-1,2.41-1Z" fill="none" stroke="#000"/>
  <path d="M14.84,19.28c.68-1.25.22-2.81-1.02-3.49-1.25-.68-2.81-.22-3.49,1.02-.68,1.25-.22,2.81,1.02,3.49,1.25.68,2.81.22,3.49-1.02Z" fill="#47a138"/>
  <path d="M13.68,19.31c.06-.03.11-.07.15-.12.03-.04.05-.08.07-.13s.02-.1.01-.15c0-.04-.01-.07-.03-.11-.02-.03-.04-.06-.06-.08-.07-.05-.15-.05-.24,0v-.88s-.08,0-.08,0v1.03s.07-.04.07-.04c.06-.05.15-.09.22-.04.02.01.03.03.04.05s.02.04.02.07c0,.04,0,.08-.01.11-.01.04-.03.07-.05.1-.08.1-.19.13-.32.16v.09c.08-.01.15-.03.21-.06Z"/>
  <path d="M14.91,18.05l-.67.1.02.13.67-.1-.02-.13Z"/>
  <path d="M11.46,18.05l.67.1-.02.13-.67-.1.02-.13Z"/>
  <path d="M12.89,15.06h.59c.68.02,1.33.3,1.81.8.49.5.77,1.18.78,1.89h-3.5l-.03-.46-.18-.02-.17.48h-.41l-.07-.99-.18-.02-.35,1.01h-.94c.01-.71.29-1.39.78-1.89.48-.5,1.13-.78,1.81-.8h.07Z" fill="none" stroke="#000"/>
</svg>