<?xml version="1.0" encoding="UTF-8"?>
<svg id="a" data-name="Camada 1" xmlns="http://www.w3.org/2000/svg" viewBox="0 0 434.68 270.66">
  <g opacity=".3">
    <rect x="60.77" y="79.76" width="25.85" height="25.85" fill="#d9d9d9"/>
    <rect x="60.77" y="53.91" width="25.85" height="25.85" fill="rgba(217, 217, 217, .5)"/>
    <rect x="34.92" y="53.91" width="25.85" height="25.85" fill="rgba(217, 217, 217, .9)"/>
    <rect x="60.77" y="28.06" width="25.85" height="25.85" fill="rgba(217, 217, 217, .9)"/>
    <rect x="60.77" y="2.2" width="25.85" height="25.85" fill="rgba(217, 217, 217, .5)"/>
    <rect x="86.62" y="2.2" width="25.85" height="25.85" fill="rgba(217, 217, 217, .9)"/>
    <rect x="10.52" y="79.76" width="25.85" height="25.85" fill="rgba(217, 217, 217, .9)"/>
  </g>
  <g opacity=".3">
    <rect x="382.97" y="244.81" width="25.85" height="25.85" fill="#d9d9d9"/>
    <rect x="382.97" y="218.95" width="25.85" height="25.85" fill="rgba(217, 217, 217, .5)"/>
    <rect x="357.11" y="218.95" width="25.85" height="25.85" fill="rgba(217, 217, 217, .9)"/>
    <rect x="382.97" y="193.1" width="25.85" height="25.85" fill="rgba(217, 217, 217, .9)"/>
    <rect x="382.97" y="167.25" width="25.85" height="25.85" fill="rgba(217, 217, 217, .5)"/>
    <rect x="408.82" y="167.25" width="25.85" height="25.85" fill="rgba(217, 217, 217, .9)"/>
    <rect x="332.72" y="244.81" width="25.85" height="25.85" fill="rgba(217, 217, 217, .9)"/>
  </g>
  <path d="M235.89,181.23c.14.43.33,1.06.57,1.86.47,1.6,1.1,3.89,1.74,6.61,1.27,5.41,2.57,12.56,2.74,19.58l-14.36,8.83.26.6,13.97-3.75c-.33,4.26-1.22,8.25-2.94,11.54-4.04,7.73-9.04,11.69-14.39,13.01-5.36,1.32-11.16,0-16.83-2.96-5.67-2.96-10.05-6.98-12.02-12.14-1.97-5.15-1.56-11.51,2.48-19.24,2-3.83,5.43-7.28,9.46-10.29,4.03-3.01,8.65-5.59,13.03-7.68,4.38-2.09,8.5-3.7,11.53-4.78,1.51-.54,2.76-.95,3.62-1.23.43-.14.77-.24.99-.31.01,0,.03,0,.04-.01.03.1.07.21.11.35Z" fill="none" stroke="#ff5031"/>
  <path d="M236.56,180.16l.08.02h0s.01,0,.01,0c-.02.11-.05.24-.09.4h0c-.38,1.71-1.46,6.34-3.24,12.26-.08.27-.16.54-.25.82h0c-.96,3.15-2.11,6.64-3.46,10.22h0c-.34.9-.68,1.78-1.02,2.65h0c-.1.27-.21.54-.31.8h0c-1.48,3.68-3.01,7.04-4.59,10.09l-.4.77c-4.69,8.85-9.78,14.95-15.21,18.27l-.06-.09-.05-.08c6-3.67,11.01-10.51,15.07-18.17.13-.25.27-.5.4-.76,1.72-3.31,3.26-6.76,4.64-10.17h0c.11-.26.22-.53.32-.8h0c1.79-4.51,3.28-8.94,4.48-12.84h0c.09-.28.17-.56.25-.83,1.94-6.43,3.04-11.3,3.32-12.57l.1.02Z" fill="#fff" stroke="#ff5031"/>
  <path d="M222.76,185.41c2.07,2.7,4.7,4.91,7.72,6.49h0c.73.38,1.47.72,2.23,1.03.28.11.56.22.83.31h0c2.08.74,4.25,1.17,6.45,1.29.01.07.02.14.04.21-2.22-.12-4.41-.56-6.51-1.3h0s-.41-.15-.41-.15c-.14-.05-.27-.1-.4-.15h0s-.59-.24-.59-.24c-.59-.25-1.16-.52-1.73-.82-3.06-1.6-5.72-3.84-7.81-6.58.06-.03.12-.05.19-.08Z" fill="#fff" stroke="#ff5031"/>
  <path d="M215.39,189.06c.53,3.58,1.88,6.99,3.94,9.97,2.16,3.11,5.04,5.64,8.39,7.4.07.04.16.08.25.12h0c.13.07.27.14.4.2l.41.19c4,1.85,8.44,2.53,12.81,1.95,0,.07,0,.13,0,.2-4.38.57-8.84-.11-12.86-1.95h0c-.26-.12-.53-.25-.79-.39h0s-.31-.16-.31-.16c-3.33-1.74-6.2-4.25-8.36-7.33-2.12-3.01-3.51-6.47-4.06-10.11.06-.03.12-.07.19-.1Z" fill="#fff" stroke="#ff5031"/>
  <path d="M209.88,192.38c-.79,4.75-.11,9.63,1.97,13.98,2.12,4.44,5.58,8.11,9.88,10.48l.42.22c.29.15.58.3.88.43h0c.14.07.28.13.42.19l.42.18c5.44,2.31,11.53,2.48,17.08.49-.01.07-.03.15-.04.22-5.59,1.98-11.72,1.79-17.18-.55h0c-.14-.06-.27-.12-.41-.18l-.4-.19h0s-.42-.21-.42-.21l-.42-.22c-4.41-2.32-7.99-5.96-10.21-10.42-2.2-4.42-2.97-9.42-2.2-14.29.07-.05.15-.1.22-.15Z" fill="#fff" stroke="#ff5031"/>
  <path d="M57.27,182.24c.23.07.56.17.99.31.86.28,2.1.69,3.62,1.23,3.03,1.08,7.15,2.69,11.53,4.78,4.38,2.09,9,4.66,13.03,7.68,4.03,3.02,7.46,6.46,9.46,10.29,4.04,7.72,4.45,14.09,2.48,19.24-1.97,5.16-6.36,9.17-12.02,12.14-5.67,2.96-11.46,4.28-16.83,2.96-5.36-1.32-10.35-5.28-14.39-13.01-1.72-3.29-2.61-7.28-2.94-11.54l13.97,3.75.26-.6-14.36-8.83c.17-7.03,1.48-14.17,2.74-19.58.64-2.73,1.27-5.01,1.74-6.61.23-.8.43-1.43.57-1.86.04-.14.08-.26.11-.35.01,0,.03,0,.04.01Z" fill="none" stroke="#ff5031"/>
  <path d="M56.54,181.49c.28,1.27,1.38,6.14,3.32,12.58.08.27.16.55.25.83,1.2,3.9,2.69,8.32,4.48,12.84.11.27.21.54.32.8h0c1.2,2.99,2.54,6,4,8.92l.64,1.25c.13.26.27.52.4.76,4.06,7.65,9.07,14.5,15.07,18.17l-.05.08-.06.09c-5.43-3.32-10.53-9.42-15.21-18.27l-.4-.77c-1.58-3.05-3.11-6.42-4.59-10.09h0s-.16-.4-.16-.4c-.05-.13-.1-.27-.16-.4h0s-.52-1.32-.52-1.32c-.17-.44-.34-.89-.51-1.34l-.5-1.34c-1.13-3.11-2.12-6.12-2.96-8.88h0c-.09-.28-.17-.55-.25-.82-1.78-5.92-2.86-10.55-3.23-12.26h0s-.09-.4-.09-.4h.01s0,0,0,0l.08-.02.1-.02Z" fill="#fff" stroke="#ff5031"/>
  <path d="M70.44,186.85c-2.09,2.74-4.76,4.99-7.81,6.58-.75.39-1.53.75-2.32,1.06h0c-.27.11-.54.21-.81.3h0c-2.1.74-4.29,1.18-6.51,1.3.01-.07.02-.14.04-.2,2.2-.12,4.37-.56,6.45-1.29h0c.27-.1.55-.2.83-.32h0c.76-.3,1.51-.64,2.23-1.02h0c3.02-1.57,5.65-3.79,7.72-6.49.06.03.12.05.18.08Z" fill="#fff" stroke="#ff5031"/>
  <path d="M77.81,190.52c-.55,3.64-1.94,7.1-4.06,10.11-2.17,3.07-5.03,5.58-8.36,7.32-.11.06-.21.11-.31.16h0c-.26.14-.53.26-.79.39-4.02,1.85-8.48,2.52-12.86,1.95,0-.07,0-.13,0-.2,4.37.57,8.81-.1,12.81-1.96.27-.12.55-.26.81-.4h0s.25-.12.25-.12c3.35-1.75,6.23-4.29,8.39-7.4,2.07-2.97,3.42-6.39,3.94-9.97.06.03.12.07.19.1Z" fill="#fff" stroke="#ff5031"/>
  <path d="M83.35,193.88c.77,4.87,0,9.87-2.19,14.29-2.22,4.46-5.8,8.11-10.21,10.42-.28.15-.56.29-.84.42h0c-.13.07-.27.13-.4.19l-.41.18c-5.46,2.33-11.59,2.53-17.18.55-.01-.07-.03-.15-.04-.22,5.55,1.99,11.64,1.82,17.08-.49.28-.12.56-.24.84-.37h0c.29-.14.59-.28.88-.43h0c4.5-2.36,8.12-6.12,10.3-10.7,2.08-4.35,2.76-9.24,1.97-13.98.07.05.15.1.22.15Z" fill="#fff" stroke="#ff5031"/>
  <path d="M123.22,207.06c.51.16,1.25.41,2.15.73,1.8.64,4.25,1.6,6.85,2.84,2.6,1.24,5.34,2.77,7.74,4.56,2.39,1.79,4.41,3.83,5.6,6.08,2.39,4.57,2.62,8.32,1.47,11.34-1.16,3.03-3.74,5.4-7.09,7.16-3.36,1.76-6.77,2.52-9.92,1.75-3.14-.77-6.09-3.1-8.48-7.68-.99-1.89-1.51-4.18-1.72-6.63l8.13,2.18.26-.6-8.48-5.22c.11-4.15.88-8.36,1.63-11.55.38-1.62.75-2.98,1.03-3.93.14-.48.26-.85.34-1.11,0-.03.02-.06.03-.09.13.04.29.09.49.15Z" fill="none" stroke="#ff5031"/>
  <path d="M129.66,228.59l.24.46c2.81,5.3,5.87,8.97,9.15,10.97.05.03.1.06.14.09l.13-.22.13-.22c-3.6-2.13-6.62-6.22-9.07-10.84-.08-.15-.16-.3-.24-.45-1.02-1.96-1.94-4.01-2.75-6.04-.07-.16-.13-.32-.19-.48-1.06-2.68-1.95-5.31-2.66-7.63-.05-.16-.1-.33-.15-.49-1.19-3.92-1.84-6.87-1.99-7.53-.02-.08-.03-.12-.03-.13l-.25.05h0s-.25.05-.25.05c0,.01.03.16.09.43.23,1.02.87,3.78,1.93,7.31.05.16.1.32.15.49.57,1.88,1.26,3.96,2.06,6.1.2.54.4,1.06.61,1.58.06.16.12.32.19.48.88,2.19,1.8,4.2,2.74,6.02Z" fill="#ff5031"/>
  <path d="M119.97,214.69c-.03.17-.06.34-.09.52,1.43-.05,2.83-.32,4.18-.79.16-.06.33-.12.49-.18.48-.19.94-.4,1.4-.64,1.92-1,3.58-2.43,4.87-4.17-.16-.07-.32-.14-.48-.21-1.23,1.64-2.81,2.98-4.63,3.93-.43.22-.86.42-1.31.6-.16.07-.33.13-.49.19-1.27.45-2.59.71-3.94.77Z" fill="#ff5031"/>
  <path d="M118.99,223.2c0,.17,0,.34,0,.51,2.7.39,5.46-.02,7.94-1.16.16-.07.32-.15.48-.23.07-.03.13-.06.19-.1,2.01-1.05,3.74-2.57,5.05-4.42,1.31-1.85,2.15-3.99,2.47-6.24-.16-.09-.32-.18-.48-.26-.28,2.2-1.09,4.31-2.35,6.13-1.27,1.82-2.96,3.31-4.92,4.34-.05.02-.1.05-.15.07-.16.08-.31.16-.47.23-2.42,1.12-5.1,1.51-7.74,1.12Z" fill="#ff5031"/>
  <path d="M119.32,228.76c.03.2.07.39.11.58,3.4,1.23,7.15,1.13,10.48-.29.16-.07.33-.15.49-.22.17-.08.34-.17.51-.25,2.66-1.4,4.82-3.6,6.16-6.29,1.34-2.69,1.8-5.74,1.31-8.71-.19-.13-.39-.26-.59-.39.59,2.93.21,5.96-1.08,8.65s-3.41,4.9-6.05,6.28c-.17.09-.34.17-.51.26-.16.08-.32.15-.49.22-3.29,1.4-7,1.46-10.34.17Z" fill="#ff5031"/>
  <path d="M290.87,148.86h-.04c-6.83-1.13-14.41-1.13-23.18,0h0c-.22,0-.44-.04-.64-.12-.2-.08-.39-.2-.54-.36-.16-.15-.28-.34-.36-.54-.08-.2-.13-.42-.13-.64v-7.95c0-.44.17-.86.48-1.17.31-.31.73-.48,1.17-.49,7.73-1.01,15.55-1.01,23.28,0h0c.43,0,.85.18,1.15.49.3.31.47.73.47,1.16v7.95c0,.44-.17.86-.49,1.17-.31.31-.73.48-1.17.48Z" fill="#fff"/>
  <path d="M290.87,148.86h-.04c-6.83-1.13-14.41-1.13-23.18,0h0c-.22,0-.44-.04-.64-.12-.2-.08-.39-.2-.54-.36-.16-.15-.28-.34-.36-.54-.08-.2-.13-.42-.13-.64v-7.95c0-.44.17-.86.48-1.17.31-.31.73-.48,1.17-.49,7.73-1.01,15.55-1.01,23.28,0h0c.43,0,.85.18,1.15.49.3.31.47.73.47,1.16v7.95c0,.44-.17.86-.49,1.17-.31.31-.73.48-1.17.48ZM278.95,137.3c-3.78,0-7.55.24-11.3.75-.16,0-.32.03-.47.09-.15.06-.28.15-.4.26-.12.11-.21.25-.27.39-.06.15-.1.31-.1.47v7.95c0,.32.13.62.35.85s.53.35.85.35c8.78-1.13,16.4-1.13,23.27,0,.32,0,.62-.13.84-.36.22-.22.35-.53.35-.84v-7.95c0-.32-.13-.62-.35-.85-.23-.23-.53-.35-.85-.35-3.95-.5-7.93-.75-11.92-.75Z" fill="#47a138"/>
  <path d="M279.24,146c1.74,0,3.15-1.41,3.15-3.15s-1.41-3.15-3.15-3.15-3.15,1.41-3.15,3.15,1.41,3.15,3.15,3.15Z" fill="#47a138"/>
  <path d="M271.14,141.21h-2.7c-.18,0-.35-.07-.48-.2-.13-.13-.2-.3-.2-.48v-.9c0-.18.07-.35.2-.48.13-.13.3-.2.48-.2h2.7c.18,0,.35.07.48.2.13.13.2.3.2.48v.9c0,.18-.07.35-.2.48-.13.13-.3.2-.48.2Z" fill="#47a138"/>
  <path d="M290.04,147.51h-2.7c-.18,0-.35-.07-.48-.2-.13-.13-.2-.3-.2-.48v-.9c0-.18.07-.35.2-.48.13-.13.3-.2.48-.2h2.7c.18,0,.35.07.48.2.13.13.2.3.2.48v.9c0,.18-.07.35-.2.48-.13.13-.3.2-.48.2Z" fill="#47a138"/>
  <path d="M287.02,145.57l-.03-.02c-5.85-3.69-12.84-6.64-21.36-9.01h0c-.2-.08-.39-.21-.54-.36-.16-.15-.28-.34-.36-.54s-.13-.42-.13-.64.04-.44.13-.64l3.09-7.32c.17-.4.5-.72.9-.89.41-.17.86-.16,1.27,0,7.51,2.08,14.72,5.12,21.44,9.05h0c.4.18.71.5.87.9.16.4.15.85-.02,1.25l-3.09,7.32c-.17.4-.5.72-.9.89-.41.17-.86.16-1.27,0Z" fill="#fff"/>
  <path d="M287.02,145.57l-.03-.02c-5.85-3.69-12.84-6.64-21.36-9.01h0c-.2-.08-.39-.21-.54-.36-.16-.15-.28-.34-.36-.54s-.13-.42-.13-.64.04-.44.13-.64l3.09-7.32c.17-.4.5-.72.9-.89.41-.17.86-.16,1.27,0,7.51,2.08,14.72,5.12,21.44,9.05h0c.4.18.71.5.87.9.16.4.15.85-.02,1.25l-3.09,7.32c-.17.4-.5.72-.9.89-.41.17-.86.16-1.27,0ZM280.54,130.29c-3.48-1.48-7.05-2.71-10.7-3.7-.15-.07-.31-.1-.47-.1-.16,0-.32.02-.47.08-.15.06-.29.15-.4.26-.12.11-.21.24-.27.39l-3.09,7.32c-.12.29-.13.62,0,.92.12.3.35.53.65.66,8.53,2.37,15.55,5.34,21.44,9.05.29.12.62.12.91,0,.29-.12.52-.35.65-.64l3.09-7.32c.12-.29.13-.63,0-.92-.12-.3-.35-.53-.65-.66-3.45-1.99-7.02-3.77-10.69-5.33h0Z" fill="#47a138"/>
  <path d="M278.65,138.67c1.74,0,3.15-1.41,3.15-3.15s-1.41-3.15-3.15-3.15-3.15,1.41-3.15,3.15,1.41,3.15,3.15,3.15Z" fill="#47a138"/>
  <path d="M271.83,130.85l-2.49-1.05c-.17-.07-.3-.2-.36-.37-.07-.17-.07-.35,0-.52l.35-.83c.07-.17.2-.3.37-.36.17-.07.35-.07.52,0l2.49,1.05c.17.07.3.2.36.37.07.17.07.35,0,.52l-.35.83c-.07.17-.2.3-.37.36-.17.07-.35.07-.52,0Z" fill="#47a138"/>
  <path d="M286.79,144.01l-2.49-1.05c-.17-.07-.3-.2-.36-.37-.07-.17-.07-.35,0-.52l.35-.83c.07-.17.2-.3.37-.36.17-.07.35-.07.52,0l2.49,1.05c.17.07.3.2.36.37.07.17.07.35,0,.52l-.35.83c-.07.17-.2.3-.37.36-.17.07-.35.07-.52,0Z" fill="#47a138"/>
  <path d="M294.01,134.2l-.12.2.15.18c.4.46.7,1.01.87,1.6.17.59.21,1.21.11,1.81-.1.61-.32,1.18-.66,1.69-.34.51-.79.94-1.32,1.25h0c-.88.54-1.93.74-2.95.55-1.02-.18-1.93-.73-2.57-1.55-.64-.81-.96-1.83-.9-2.86.06-1.03.5-2,1.23-2.73l.04-.04.02-.05,6.21-13.01,7.54-.49-7.67,13.44Z" fill="none" stroke="#000"/>
  <path d="M354.25,215.5v20.63h-4.9l-2.54-20.63h7.44Z" fill="none" stroke="#000"/>
  <path d="M355.99,241.81h-17.79v-.23c0-1.84.73-3.6,2.03-4.9,1.3-1.3,3.06-2.03,4.9-2.03h10.86v7.15Z" fill="#2f2e41"/>
  <path d="M316.45,215.5v20.63h-4.9l-2.54-20.63h7.44Z" fill="none" stroke="#000"/>
  <path d="M318.18,241.81h-17.79v-.23c0-1.84.73-3.6,2.03-4.9,1.3-1.3,3.06-2.03,4.9-2.03h10.87v7.15Z" fill="#2f2e41"/>
  <path d="M302.58,121s-1.52,21.61,1.47,32.5c2.99,10.89,3.52,76.71,3.52,76.71h10.02l8.69-89.61,20.02,89.92,9.55-.66-5.23-105.96-48.03-2.91Z" fill="#2f2e41"/>
  <path d="M346.47,48.14l-7.66-5.59-12.84,2.79-3.47,8.26-5.99,2.97c-1.97.98-3.67,2.42-4.96,4.19-1.29,1.78-2.13,3.84-2.44,6.02l-8.55,59.06,50.05-1.94,6.06-69.56c.07-.73-.02-1.46-.24-2.15-.22-.69-.59-1.34-1.06-1.89-.48-.55-1.07-1-1.72-1.32-.66-.32-1.37-.51-2.1-.55l-5.08-.3Z" fill="#cbcbcb"/>
  <path d="M313.35,61.18l-4.62,6.23-20.14,61.41,9.44,3.78,15.11-28.62.21-42.81Z" fill="#cbcbcb"/>
  <path d="M329.9,8.62c8.28,0,14.99,6.71,14.99,14.99s-6.71,14.99-14.99,14.99c-8.28,0-14.99-6.71-14.99-14.99s6.71-14.99,14.99-14.99Z" fill="none" stroke="#000"/>
  <path d="M330.11,39.63c6.17,0,11.18-5.01,11.18-11.18s-5-11.18-11.18-11.18-11.18,5.01-11.18,11.18,5,11.18,11.18,11.18Z" fill="#389429"/>
  <path d="M328.66,0c4.62,0,8.36,3.75,8.36,8.37s-3.75,8.37-8.36,8.37-8.37-3.75-8.37-8.37,3.75-8.37,8.37-8.37Z" fill="none" stroke="#000"/>
  <path d="M341.56,19.55c-.05,2.23-.64,4.37-1.68,5.96-1.03,1.6-2.42,2.53-3.87,2.6.09,0,.18.02.27.03,1.5.03,2.96-.86,4.05-2.47,1.09-1.61,1.73-3.81,1.78-6.11.05-2.31-.51-4.53-1.53-6.18-1.03-1.65-2.45-2.6-3.95-2.63-.09,0-.18.01-.27.02,1.45.13,2.8,1.12,3.77,2.75.97,1.63,1.49,3.79,1.45,6.02Z"/>
  <path d="M350.21,64.71l-3.12,31.09-11.01,21.71,14.14-52.8Z" isolation="isolate" opacity=".1"/>
  <path d="M20.48,160.42h-2.7v2.25h2.7v-2.25Z" fill="#f0f0f0"/>
  <path d="M275.92,162.67h-5.32v-2.25h5.32v2.25ZM265.28,162.67h-5.32v-2.25h5.32v2.25ZM254.63,162.67h-5.32v-2.25h5.32v2.25ZM243.99,162.67h-5.32v-2.25h5.32v2.25ZM233.35,162.67h-5.32v-2.25h5.32v2.25ZM222.7,162.67h-5.32v-2.25h5.32v2.25ZM212.06,162.67h-5.32v-2.25h5.32v2.25ZM201.42,162.67h-5.32v-2.25h5.32v2.25ZM190.77,162.67h-5.32v-2.25h5.32v2.25ZM180.13,162.67h-5.32v-2.25h5.32v2.25ZM169.49,162.67h-5.32v-2.25h5.32v2.25ZM158.84,162.67h-5.32v-2.25h5.32v2.25ZM148.2,162.67h-5.32v-2.25h5.32v2.25ZM137.56,162.67h-5.32v-2.25h5.32v2.25ZM126.91,162.67h-5.32v-2.25h5.32v2.25ZM116.27,162.67h-5.32v-2.25h5.32v2.25ZM105.63,162.67h-5.32v-2.25h5.32v2.25ZM94.98,162.67h-5.32v-2.25h5.32v2.25ZM84.34,162.67h-5.32v-2.25h5.32v2.25ZM73.7,162.67h-5.32v-2.25h5.32v2.25ZM63.05,162.67h-5.32v-2.25h5.32v2.25ZM52.41,162.67h-5.32v-2.25h5.32v2.25ZM41.77,162.67h-5.32v-2.25h5.32v2.25ZM31.12,162.67h-5.32v-2.25h5.32v2.25Z" fill="#f8f8f8"/>
  <path d="M20.48,103.25h-2.7v2.25h2.7v-2.25Z" fill="#f0f0f0"/>
  <path d="M275.76,105.72h-5.32v-2.25h5.32v2.25ZM265.12,105.72h-5.32v-2.25h5.32v2.25ZM254.48,105.72h-5.32v-2.25h5.32v2.25ZM243.83,105.72h-5.32v-2.25h5.32v2.25ZM233.19,105.72h-5.32v-2.25h5.32v2.25ZM222.55,105.72h-5.32v-2.25h5.32v2.25ZM211.9,105.72h-5.32v-2.25h5.32v2.25ZM201.26,105.72h-5.32v-2.25h5.32v2.25ZM190.62,105.72h-5.32v-2.25h5.32v2.25ZM179.97,105.72h-5.32v-2.25h5.32v2.25ZM169.33,105.72h-5.32v-2.25h5.32v2.25ZM158.69,105.72h-5.32v-2.25h5.32v2.25ZM148.04,105.72h-5.32v-2.25h5.32v2.25ZM137.4,105.72h-5.32v-2.25h5.32v2.25ZM126.76,105.72h-5.32v-2.25h5.32v2.25ZM116.11,105.72h-5.32v-2.25h5.32v2.25ZM105.47,105.72h-5.32v-2.25h5.32v2.25ZM94.83,105.72h-5.32v-2.25h5.32v2.25ZM84.18,105.72h-5.32v-2.25h5.32v2.25ZM73.54,105.72h-5.32v-2.25h5.32v2.25ZM62.9,105.72h-5.32v-2.25h5.32v2.25ZM52.25,105.72h-5.32v-2.25h5.32v2.25ZM41.61,105.72h-5.32v-2.25h5.32v2.25ZM30.97,105.72h-5.32v-2.25h5.32v2.25Z" fill="#f8f8f8"/>
  <path d="M275.76,45.11h-5.32v-2.25h5.32v2.25ZM265.12,45.11h-5.32v-2.25h5.32v2.25ZM254.48,45.11h-5.32v-2.25h5.32v2.25ZM243.83,45.11h-5.32v-2.25h5.32v2.25ZM233.19,45.11h-5.32v-2.25h5.32v2.25ZM222.55,45.11h-5.32v-2.25h5.32v2.25ZM211.9,45.11h-5.32v-2.25h5.32v2.25ZM201.26,45.11h-5.32v-2.25h5.32v2.25ZM190.62,45.11h-5.32v-2.25h5.32v2.25ZM179.97,45.11h-5.32v-2.25h5.32v2.25ZM169.33,45.11h-5.32v-2.25h5.32v2.25ZM158.69,45.11h-5.32v-2.25h5.32v2.25ZM148.04,45.11h-5.32v-2.25h5.32v2.25ZM137.4,45.11h-5.32v-2.25h5.32v2.25ZM126.76,45.11h-5.32v-2.25h5.32v2.25ZM116.11,45.11h-5.32v-2.25h5.32v2.25ZM105.47,45.11h-5.32v-2.25h5.32v2.25ZM94.83,45.11h-5.32v-2.25h5.32v2.25ZM84.18,45.11h-5.32v-2.25h5.32v2.25ZM73.54,45.11h-5.32v-2.25h5.32v2.25ZM62.9,45.11h-5.32v-2.25h5.32v2.25ZM52.25,45.11h-5.32v-2.25h5.32v2.25ZM41.61,45.11h-5.32v-2.25h5.32v2.25ZM30.97,45.11h-5.32v-2.25h5.32v2.25Z" fill="#f8f8f8"/>
  <path d="M105.77,161.09h-22.05v81.02h22.05v-81.02Z" fill="#3f3d56"/>
  <path d="M109.82,161.09h-22.05v81.02h22.05v-81.02Z" fill="#47a138"/>
  <path d="M157.98,103.93h-22.05v138.18h22.05V103.93Z" fill="#3f3d56"/>
  <path d="M162.03,103.93h-22.05v138.18h22.05V103.93Z" fill="#47a138"/>
  <path d="M210.19,46.77h-22.05v195.34h22.05V46.77Z" fill="#3f3d56"/>
  <path d="M214.24,46.77h-22.05v195.34h22.05V46.77Z" fill="#47a138"/>
  <path d="M18,109.78c2.98,0,5.4-2.42,5.4-5.4s-2.42-5.4-5.4-5.4-5.4,2.42-5.4,5.4,2.42,5.4,5.4,5.4Z" fill="#f8f8f8"/>
  <path d="M18,49.17c2.98,0,5.4-2.42,5.4-5.4s-2.42-5.4-5.4-5.4-5.4,2.42-5.4,5.4,2.42,5.4,5.4,5.4Z" fill="#f8f8f8"/>
  <path d="M18,166.94c2.98,0,5.4-2.42,5.4-5.4s-2.42-5.4-5.4-5.4-5.4,2.42-5.4,5.4,2.42,5.4,5.4,5.4Z" fill="#f8f8f8"/>
  <path d="M399.68,241.6H0v1.01h399.68v-1.01Z" fill="#47a138"/>
  <path d="M337.23,138.96h-.04c-6.83-1.13-14.41-1.13-23.18,0h0c-.22,0-.44-.04-.64-.12-.2-.08-.39-.2-.54-.36-.16-.15-.28-.34-.37-.54-.08-.2-.13-.42-.13-.64v-7.95c0-.44.17-.86.49-1.17.31-.31.73-.48,1.17-.48,7.73-1.01,15.55-1.01,23.28,0h0c.43,0,.85.18,1.15.49.31.31.47.73.47,1.16v7.95c0,.44-.17.86-.49,1.17-.31.31-.73.48-1.16.48Z" fill="#fff"/>
  <path d="M337.23,138.96h-.04c-6.83-1.13-14.41-1.13-23.18,0h0c-.22,0-.44-.04-.64-.12-.2-.08-.39-.2-.54-.36-.16-.15-.28-.34-.37-.54-.08-.2-.13-.42-.13-.64v-7.95c0-.44.17-.86.49-1.17.31-.31.73-.48,1.17-.48,7.73-1.01,15.55-1.01,23.28,0h0c.43,0,.85.18,1.15.49.31.31.47.73.47,1.16v7.95c0,.44-.17.86-.49,1.17-.31.31-.73.48-1.16.48ZM325.31,127.4c-3.78,0-7.55.24-11.3.75-.16,0-.32.03-.47.09-.15.06-.28.15-.4.26-.11.11-.21.25-.27.39-.06.15-.1.31-.1.47v7.95c0,.32.13.62.35.85.23.23.53.35.85.35,8.78-1.13,16.4-1.13,23.26,0,.32,0,.62-.13.84-.36.22-.23.35-.53.35-.84v-7.95c0-.32-.13-.62-.36-.85-.22-.23-.53-.35-.85-.35-3.96-.5-7.94-.75-11.92-.75Z" fill="#47a138"/>
  <path d="M325.6,136.1c1.74,0,3.15-1.41,3.15-3.15s-1.41-3.15-3.15-3.15-3.15,1.41-3.15,3.15,1.41,3.15,3.15,3.15Z" fill="#47a138"/>
  <path d="M317.5,131.3h-2.7c-.18,0-.35-.07-.48-.2-.13-.13-.2-.3-.2-.48v-.9c0-.18.07-.35.2-.48.13-.13.3-.2.48-.2h2.7c.18,0,.35.07.48.2.13.13.2.3.2.48v.9c0,.18-.07.35-.2.48-.13.13-.3.2-.48.2Z" fill="#47a138"/>
  <path d="M336.41,137.61h-2.7c-.18,0-.35-.07-.48-.2-.12-.13-.2-.3-.2-.48v-.9c0-.18.07-.35.2-.48.13-.13.3-.2.48-.2h2.7c.18,0,.35.07.47.2.13.13.2.3.2.48v.9c0,.18-.07.35-.2.48-.12.13-.3.2-.47.2Z" fill="#47a138"/>
  <path d="M347.99,116.32l-7.09,12.55-.03.05v.06c-.19,1.02-.74,1.94-1.55,2.58-.81.64-1.82.97-2.85.91-1.03-.06-2.01-.49-2.74-1.22-.74-.73-1.18-1.7-1.24-2.73h0c-.04-.61.05-1.23.27-1.8s.57-1.09,1.01-1.52c.44-.43.97-.75,1.55-.95.58-.2,1.2-.27,1.81-.2l.23.02.1-.21,6.6-14,3.93,6.45Z" fill="none" stroke="#000"/>
  <path d="M350.81,52.44l2.83-3.68s6.88-1.4,8.05,8.05l-.74,42.02-15.08,23.74-9.8-2.5,12.8-28.2,1.93-39.43Z" fill="#cbcbcb"/>
  <path d="M332.11,29.1c.2-.09.39-.23.55-.42.11-.13.18-.29.23-.47.05-.18.07-.36.05-.55,0-.13-.04-.26-.1-.37-.05-.11-.12-.21-.22-.28-.23-.18-.53-.17-.84,0l-.04-3.12h-.25s.05,3.67.05,3.67l.19-.16c.22-.18.54-.31.76-.14.06.05.11.11.14.18.03.07.06.16.06.24.01.14,0,.28-.04.41-.03.13-.09.25-.17.35-.27.34-.67.45-1.13.55l.05.31c.24-.05.49-.12.72-.22Z"/>
  <path d="M336.44,24.6l-2.39.36.07.44,2.39-.36-.07-.44Z"/>
  <path d="M324.23,24.6l2.39.36-.07.44-2.39-.36.07-.44Z"/>
</svg>