<?xml version="1.0" encoding="UTF-8"?>
<svg id="a" data-name="Camada 1" xmlns="http://www.w3.org/2000/svg" viewBox="0 0 70 70">
  <path d="M17.2,57.08H7.29c-1.03,0-1.86-.83-1.86-1.86V15.21c0-1.27,1.03-2.3,2.3-2.3h9.44c1.27,0,2.3,1.03,2.3,2.3v3.97h-2v-3.97c0-.16-.13-.3-.3-.3H7.73c-.16,0-.3.13-.3.3v39.87h9.63v-5.17h2v5.31c0,1.03-.83,1.86-1.86,1.86Z" fill="#2b6222"/>
  <rect x="11.45" y="17.56" width="2" height="34.38" fill="#2b6222"/>
  <path d="M47.17,49.1H11.45v-28.29h17.35l7.4-6.4c1.13-.98,2.63-1.41,4.12-1.17l16.67,2.67v17.47l-6.47,4.1h-13.82c-.81,0-1.58-.32-2.15-.9-.57-.58-.87-1.35-.86-2.17l.11-4.9c.04-1.78,1.51-3.21,3.28-3.21h.03l8.06.07v-3.55H13.45v24.29h31.73v-8.2h2v10.2ZM37.08,28.28c-.69,0-1.27.56-1.28,1.26l-.11,4.9c0,.27.1.53.29.72.19.19.44.3.72.3h13.24l5.05-3.2v-14.67l-14.98-2.4c-.9-.14-1.8.12-2.49.71l-5.65,4.89h15.32v7.57l-10.08-.09h-.01Z" fill="#2b6222"/>
  <path d="M62.25,37.37h-4.96c-1.28,0-2.31-1.04-2.31-2.31v-2.24h2v2.24c0,.17.14.31.31.31h4.96c.17,0,.31-.14.31-.31V15.56c0-.22-.18-.39-.39-.39h-4.8c-.22,0-.39.18-.39.39v1.19h-2v-1.19c0-1.32,1.07-2.39,2.39-2.39h4.8c1.32,0,2.39,1.07,2.39,2.39v19.49c0,1.28-1.04,2.31-2.31,2.31Z" fill="#2b6222"/>
  <rect x="14.93" y="42.34" width="6.27" height="2" fill="#2b6222"/>
  <path d="M36.75,44.34h-8.17v-2h8.17c.22,0,.43-.12.54-.31l1.65-2.83,1.73,1.01-1.65,2.84c-.47.8-1.34,1.3-2.26,1.3Z" fill="#2b6222"/>
  <rect x="14.93" y="24.95" width="6.27" height="2" fill="#2b6222"/>
  <rect x="28.58" y="24.95" width="4.85" height="2" fill="#2b6222"/>
  <text transform="translate(20.51 40.6)" fill="#2b6222" font-family="MyriadPro-Regular, &apos;Myriad Pro&apos;" font-size="18.11" stroke="#2b6222" stroke-miterlimit="10"><tspan x="0" y="0">$</tspan></text>
</svg>